<?xml version="1.0" encoding="utf-8"?>
<!-- Generator: Adobe Illustrator 28.1.0, SVG Export Plug-In . SVG Version: 6.00 Build 0)  -->
<svg version="1.1" id="레이어_1" xmlns="http://www.w3.org/2000/svg" xmlns:xlink="http://www.w3.org/1999/xlink" x="0px"
	 y="0px" viewBox="0 0 1920 1080" style="enable-background:new 0 0 1920 1080;" xml:space="preserve">
<style type="text/css">
	.st0{fill:url(#SVGID_1_);}
	.st1{fill:url(#SVGID_00000084531309732561781050000018138394946845731230_);}
	.st2{fill:url(#SVGID_00000002344808580097958600000005624925999767599039_);}
</style>
<linearGradient id="SVGID_1_" gradientUnits="userSpaceOnUse" x1="1648.0001" y1="3614.6777" x2="1648.0001" y2="3967.1777" gradientTransform="matrix(1 0 0 1 0 -2929.7778)">
	<stop  offset="5.000000e-02" style="stop-color:#FFFFFF"/>
	<stop  offset="6.596877e-02" style="stop-color:#FFFFFF;stop-opacity:0.9832"/>
	<stop  offset="0.4817" style="stop-color:#F7F7F7;stop-opacity:0.5456"/>
	<stop  offset="1" style="stop-color:#F4F4F4;stop-opacity:0"/>
</linearGradient>
<path class="st0" d="M1900.9,780.2c-7.6,0-15,0.8-22.2,2.1c-9.5-53.3-56-93.8-112-93.8c-24.3,0-46.7,7.7-65.2,20.6
	c-14.2-13.1-33.1-21.2-54-21.2c-15.5,0-29.9,4.5-42.1,12.1c-14.8-9.5-32.4-15.1-51.4-15.1c-40.2,0-74.5,24.9-88.5,60.1
	c-14.6-7.7-31.1-12.1-48.7-12.1c-57.6,0-104.3,46.7-104.3,104.3c0,5,0.5,9.8,1.1,14.6c-23.1,15.5-38.3,41.8-38.3,71.7
	c0,47.7,38.6,86.3,86.3,86.3c13.2,0,25.7-3.1,37-8.4c16.3,21.8,42.2,36,71.5,36c26.7,0,50.5-11.7,66.9-30.3
	c14.7,10,32.4,15.9,51.5,15.9c28.7,0,54.3-13.3,71.1-34c20,18.8,46.9,30.4,76.6,30.4c31.6,0,60.1-13.1,80.4-34.1
	c21.7,21.5,51.4,34.7,84.3,34.7c66.2,0,119.8-53.7,119.8-119.8S1967.1,780.2,1900.9,780.2z"/>
<linearGradient id="SVGID_00000105420275184591221020000008596022530998654650_" gradientUnits="userSpaceOnUse" x1="61.8" y1="3263.1777" x2="61.8" y2="3711.2778" gradientTransform="matrix(1 0 0 1 0 -2929.7778)">
	<stop  offset="5.000000e-02" style="stop-color:#FFFFFF"/>
	<stop  offset="6.596877e-02" style="stop-color:#FFFFFF;stop-opacity:0.9832"/>
	<stop  offset="0.4817" style="stop-color:#F7F7F7;stop-opacity:0.5456"/>
	<stop  offset="1" style="stop-color:#F4F4F4;stop-opacity:0"/>
</linearGradient>
<path style="fill:url(#SVGID_00000105420275184591221020000008596022530998654650_);" d="M295.6,501.8c2.3-9.2,3.7-18.9,3.7-28.8
	c0-64.5-52.3-116.8-116.8-116.8c-26.9,0-51.6,9.2-71.4,24.5c-21.2-28.6-55.1-47.3-93.4-47.3c-53.2,0-98,35.8-111.8,84.7
	c-10-2.8-20.5-4.4-31.4-4.4c-64.5,0-116.8,52.3-116.8,116.8c0,38.6,18.8,72.8,47.7,94c-0.6,5.1-1,10.3-1,15.6
	c0,72.8,59,131.8,131.8,131.8c27.4,0,52.8-8.4,73.9-22.7c9.4,5.6,20.4,8.9,32.1,8.9c13.3,0,25.5-4.1,35.7-11.1
	c20.1,21.2,48.4,34.5,80,34.5c52.7,0,96.7-37,107.6-86.4c0.5,0,1,0.1,1.5,0.1c54.6,0,98.9-44.3,98.9-98.9
	C365.8,551.8,336.2,514.1,295.6,501.8z"/>
<linearGradient id="SVGID_00000029761185652387181140000015066848277184213439_" gradientUnits="userSpaceOnUse" x1="1253.8499" y1="3563.6777" x2="1253.8499" y2="3826.4778" gradientTransform="matrix(1 0 0 1 0 -2929.7778)">
	<stop  offset="5.000000e-02" style="stop-color:#FFFFFF"/>
	<stop  offset="6.596877e-02" style="stop-color:#FFFFFF;stop-opacity:0.9832"/>
	<stop  offset="0.4817" style="stop-color:#F7F7F7;stop-opacity:0.5456"/>
	<stop  offset="1" style="stop-color:#F4F4F4;stop-opacity:0"/>
</linearGradient>
<path style="fill:url(#SVGID_00000029761185652387181140000015066848277184213439_);" d="M1467.7,757.3c0-36.9-29.9-66.8-66.8-66.8
	c-5.9,0-11.6,0.8-17,2.3c-5.7-15.5-20.5-26.5-37.9-26.5c-3.6,0-7.1,0.5-10.5,1.4c-15.5-20.5-40-33.8-67.7-33.8
	c-33.8,0-62.9,19.8-76.5,48.3c-8.6-5-18.6-7.9-29.3-7.9c-29.4,0-53.7,21.6-57.9,49.8c-3.7-0.8-7.6-1.3-11.5-1.3
	c-29,0-52.6,23.5-52.6,52.6s23.5,52.6,52.6,52.6c3.6,0,7.1-0.4,10.5-1.1c7.1,23.2,28.6,40.2,54.2,40.2c13.5,0,25.9-4.8,35.7-12.7
	c13.9,25.2,40.7,42.3,71.5,42.3c28.6,0,53.7-14.7,68.3-37c6.1,2.1,12.7,3.3,19.6,3.3c25.9,0,47.9-16.4,56.4-39.4
	C1441.9,819.8,1467.7,791.6,1467.7,757.3z"/>
</svg>
