<?xml version="1.0" encoding="utf-8"?>
<!-- Generator: Adobe Illustrator 28.1.0, SVG Export Plug-In . SVG Version: 6.00 Build 0)  -->
<svg version="1.1" id="레이어_1" xmlns="http://www.w3.org/2000/svg" xmlns:xlink="http://www.w3.org/1999/xlink" x="0px"
	 y="0px" viewBox="0 0 1920 1080" style="enable-background:new 0 0 1920 1080;" xml:space="preserve">
<style type="text/css">
	.st0{fill:url(#SVGID_1_);}
	.st1{fill:url(#SVGID_00000029757110050937102960000004370054663319603090_);}
	.st2{fill:url(#SVGID_00000104689228694447257390000004050345073566234266_);}
</style>
<linearGradient id="SVGID_1_" gradientUnits="userSpaceOnUse" x1="1381.1998" y1="-4940.3779" x2="1381.1998" y2="-5340.5776" gradientTransform="matrix(1 0 0 -1 0 -4395.5557)">
	<stop  offset="5.000000e-02" style="stop-color:#FFFFFF"/>
	<stop  offset="6.596877e-02" style="stop-color:#FFFFFF;stop-opacity:0.9832"/>
	<stop  offset="0.4817" style="stop-color:#F7F7F7;stop-opacity:0.5456"/>
	<stop  offset="1" style="stop-color:#F4F4F4;stop-opacity:0"/>
</linearGradient>
<path class="st0" d="M1616.7,679c-1-74.3-61.5-134.2-136-134.2c-49.3,0-92.5,26.3-116.4,65.5c-19.2-13.3-42.5-21.2-67.6-21.2
	c-56,0-102.8,38.8-115.3,91c-6.5-1-13.1-1.7-19.8-1.7c-69,0-124.9,55.9-124.9,124.9s55.9,124.9,124.9,124.9c20.6,0,40-5.1,57.1-13.9
	c17.3,18.8,42,30.7,69.6,30.7c27.7,0,52.5-12,69.9-30.9c18.5,18.4,44,29.7,72.2,29.7c36.5,0,68.4-19.1,86.5-47.8
	c22.2,20,51.4,32.2,83.6,32.2c69.2,0,125.2-56.1,125.2-125.2C1725.8,739.4,1678.3,686.9,1616.7,679z"/>
<linearGradient id="SVGID_00000010997979584703231220000011866215550837454004_" gradientUnits="userSpaceOnUse" x1="714.7502" y1="-5006.478" x2="714.7502" y2="-5473.0781" gradientTransform="matrix(1 0 0 -1 0 -4395.5557)">
	<stop  offset="5.000000e-02" style="stop-color:#FFFFFF"/>
	<stop  offset="6.596877e-02" style="stop-color:#FFFFFF;stop-opacity:0.9832"/>
	<stop  offset="0.4817" style="stop-color:#F7F7F7;stop-opacity:0.5456"/>
	<stop  offset="1" style="stop-color:#F4F4F4;stop-opacity:0"/>
</linearGradient>
<path style="fill:url(#SVGID_00000010997979584703231220000011866215550837454004_);" d="M1037,827.5
	C1036.9,827.5,1036.9,827.5,1037,827.5c-6.2-61.3-57.9-109.2-120.8-109.2c-22.1,0-42.8,6-60.7,16.3
	c-16.3-70.9-79.7-123.7-155.5-123.7c-62.4,0-116.4,35.9-142.6,88.1c-9.8-5.3-21-8.4-33-8.4c-28,0-52,16.6-62.9,40.5
	c-4.6-0.5-9.2-0.7-13.8-0.7c-74.8,0-135.5,60.7-135.5,135.5s60.7,135.5,135.5,135.5c9.1,0,18.1-0.9,26.7-2.6
	c20.3,37.3,59.9,62.6,105.4,62.6c44,0,82.5-23.7,103.3-59.1c18.2,21.7,45.4,35.5,75.9,35.5c22.5,0,43.3-7.5,59.9-20.2
	c16.2,35.4,52,59.9,93.4,59.9c53.3,0,97.1-40.5,102.3-92.4c7.1,2,14.6,3.2,22.3,3.2c44.4,0,80.4-36,80.4-80.4
	C1117.4,863.5,1081.4,827.5,1037,827.5z"/>
<linearGradient id="SVGID_00000041289851804754285360000015389284942749847961_" gradientUnits="userSpaceOnUse" x1="1253.85" y1="-5212.7554" x2="1253.85" y2="-5475.5557" gradientTransform="matrix(1 0 0 -1 0 -4395.5557)">
	<stop  offset="5.000000e-02" style="stop-color:#FFFFFF"/>
	<stop  offset="6.596877e-02" style="stop-color:#FFFFFF;stop-opacity:0.9832"/>
	<stop  offset="0.4817" style="stop-color:#F7F7F7;stop-opacity:0.5456"/>
	<stop  offset="1" style="stop-color:#F4F4F4;stop-opacity:0"/>
</linearGradient>
<path style="fill:url(#SVGID_00000041289851804754285360000015389284942749847961_);" d="M1467.7,940.6c0-36.9-29.9-66.8-66.8-66.8
	c-5.9,0-11.6,0.8-17,2.3c-5.7-15.5-20.5-26.5-37.9-26.5c-3.6,0-7.1,0.5-10.5,1.4c-15.5-20.5-40-33.8-67.7-33.8
	c-33.8,0-62.9,19.8-76.5,48.3c-8.6-5-18.6-7.9-29.3-7.9c-29.4,0-53.7,21.6-57.9,49.8c-3.7-0.8-7.6-1.3-11.5-1.3
	c-29,0-52.6,23.5-52.6,52.6s23.5,52.6,52.6,52.6c3.6,0,7.1-0.4,10.5-1.1c7.1,23.2,28.6,40.2,54.2,40.2c13.5,0,25.9-4.8,35.7-12.7
	c13.9,25.2,40.7,42.3,71.5,42.3c28.6,0,53.7-14.7,68.3-37c6.1,2.1,12.7,3.3,19.6,3.3c25.9,0,47.9-16.4,56.4-39.4
	C1441.9,1003.1,1467.7,974.9,1467.7,940.6z"/>
</svg>
