<?xml version="1.0" encoding="utf-8"?>
<!-- Generator: Adobe Illustrator 28.1.0, SVG Export Plug-In . SVG Version: 6.00 Build 0)  -->
<svg version="1.1" id="레이어_1" xmlns="http://www.w3.org/2000/svg" xmlns:xlink="http://www.w3.org/1999/xlink" x="0px"
	 y="0px" viewBox="0 0 1920 1080" style="enable-background:new 0 0 1920 1080;" xml:space="preserve">
<style type="text/css">
	.st0{fill:url(#SVGID_1_);}
	.st1{fill:url(#SVGID_00000067217384433980158680000003191964226871040128_);}
	.st2{fill:url(#SVGID_00000023964261664459610550000002113703166062213023_);}
</style>
<linearGradient id="SVGID_1_" gradientUnits="userSpaceOnUse" x1="1851.0503" y1="723.3999" x2="1851.0503" y2="356.571" gradientTransform="matrix(1 0 0 -1 0 1080)">
	<stop  offset="5.000000e-02" style="stop-color:#FFFFFF"/>
	<stop  offset="6.596877e-02" style="stop-color:#FFFFFF;stop-opacity:0.9832"/>
	<stop  offset="0.4817" style="stop-color:#F7F7F7;stop-opacity:0.5456"/>
	<stop  offset="1" style="stop-color:#F4F4F4;stop-opacity:0"/>
</linearGradient>
<path class="st0" d="M2117.7,552.4c0.8-4.4,1.3-9,1.3-13.6c0-43-34.9-77.9-77.9-77.9c-0.2,0-0.4,0-0.7,0c0.4-3.6,0.7-7.2,0.7-10.8
	c0-51.6-41.9-93.5-93.5-93.5c-31.2,0-58.7,15.3-75.7,38.8c-10.1-4.8-21.4-7.6-33.4-7.6c-32.4,0-60.1,19.7-71.9,47.8
	c-10.1-3.7-21.1-5.3-32.5-4.4c-39.3,3.1-69.3,34.8-71.6,73.1c-4.7-0.9-9.6-1.4-14.6-1.4c-40.4,0-73.6,30.8-77.5,70.1
	c-29,11.4-49.5,39.5-49.5,72.5c0,43,34.9,77.9,77.9,77.9c16.8,0,32.3-5.4,45.1-14.4c9.2,6.8,20.5,10.8,32.8,10.8
	c20.5,0,38.3-11.2,47.9-27.7c15.5,20.7,40.8,33.2,68.5,31.1c15.6-1.2,29.8-7,41.3-15.9c7.9,4.3,17,6.8,26.6,6.8
	c20.1,0,37.6-10.7,47.3-26.7c15.6,19.7,39.7,32.5,66.8,32.5c23.7,0,45.1-9.7,60.5-25.3c15.4,15.6,36.8,25.3,60.5,25.3
	c47,0,85.1-38.1,85.1-85.1C2181.3,595.1,2154.3,562,2117.7,552.4z"/>
<linearGradient id="SVGID_00000155118823011159466470000016074154849200211369_" gradientUnits="userSpaceOnUse" x1="241.9004" y1="431.4" x2="241.9004" y2="80.3" gradientTransform="matrix(1 0 0 -1 0 1080)">
	<stop  offset="5.000000e-02" style="stop-color:#FFFFFF"/>
	<stop  offset="6.596877e-02" style="stop-color:#FFFFFF;stop-opacity:0.9832"/>
	<stop  offset="0.4817" style="stop-color:#F7F7F7;stop-opacity:0.5456"/>
	<stop  offset="1" style="stop-color:#F4F4F4;stop-opacity:0"/>
</linearGradient>
<path style="fill:url(#SVGID_00000155118823011159466470000016074154849200211369_);" d="M480.4,737.3c-15.7,0-30.4,3.9-43.3,10.7
	c-3.2-55.4-49-99.4-105.2-99.4c-31,0-58.8,13.4-78.1,34.7c-17.5-21.2-43.9-34.7-73.6-34.7c-48.2,0-87.9,35.8-94.3,82.3
	c-11.9-4.3-24.7-6.8-38.1-6.8c-62.2,0-112.7,50.4-112.7,112.7c0,3.1,0.2,6.1,0.5,9.2C-80.1,859.4-90,879.3-90,901.5
	c0,40.4,32.7,73.1,73.1,73.1c11.7,0,22.6-2.8,32.4-7.7c11.3,18.2,31.4,30.4,54.5,30.4c20.1,0,38-9.3,49.8-23.8
	c8.2,4.5,17.5,7,27.5,7c8.7,0,17-2,24.4-5.5c19.9,15.4,44.9,24.7,72,24.7c39.6,0,74.5-19.5,95.9-49.4c12,7,25.8,11.1,40.7,11.1
	c30.4,0,56.9-16.8,70.7-41.6c9.2,3,19,4.7,29.2,4.7c51.7,0,93.6-41.9,93.6-93.6C574,779.3,532.1,737.3,480.4,737.3z"/>
<linearGradient id="SVGID_00000067920211623188465570000003677377456903170739_" gradientUnits="userSpaceOnUse" x1="1253.85" y1="262.8" x2="1253.85" y2="9.094947e-13" gradientTransform="matrix(1 0 0 -1 0 1080)">
	<stop  offset="5.000000e-02" style="stop-color:#FFFFFF"/>
	<stop  offset="6.596877e-02" style="stop-color:#FFFFFF;stop-opacity:0.9832"/>
	<stop  offset="0.4817" style="stop-color:#F7F7F7;stop-opacity:0.5456"/>
	<stop  offset="1" style="stop-color:#F4F4F4;stop-opacity:0"/>
</linearGradient>
<path style="fill:url(#SVGID_00000067920211623188465570000003677377456903170739_);" d="M1467.7,940.6c0-36.9-29.9-66.8-66.8-66.8
	c-5.9,0-11.6,0.8-17,2.3c-5.7-15.5-20.5-26.5-37.9-26.5c-3.6,0-7.1,0.5-10.5,1.4c-15.5-20.5-40-33.8-67.7-33.8
	c-33.8,0-62.9,19.8-76.5,48.3c-8.6-5-18.6-7.9-29.3-7.9c-29.4,0-53.7,21.6-57.9,49.8c-3.7-0.8-7.6-1.3-11.5-1.3
	c-29,0-52.6,23.5-52.6,52.6s23.5,52.6,52.6,52.6c3.6,0,7.1-0.4,10.5-1.1c7.1,23.2,28.6,40.2,54.2,40.2c13.5,0,25.9-4.8,35.7-12.7
	c13.9,25.2,40.7,42.3,71.5,42.3c28.6,0,53.7-14.7,68.3-37c6.1,2.1,12.7,3.3,19.6,3.3c25.9,0,47.9-16.4,56.4-39.4
	C1441.9,1003.1,1467.7,974.9,1467.7,940.6z"/>
</svg>
